<?xml version="1.0" encoding="utf-8"?>
<!-- Generator: Adobe Illustrator 22.0.2, SVG Export Plug-In . SVG Version: 6.00 Build 0)  -->
<svg version="1.1" id="图层_1" xmlns="http://www.w3.org/2000/svg" xmlns:xlink="http://www.w3.org/1999/xlink" x="0px" y="0px"
	 viewBox="0 0 500 500" style="enable-background:new 0 0 500 500;" xml:space="preserve">
<style type="text/css">
	.st0{fill:#FBB03B;}
</style>
<g>
	<path class="st0" d="M250,0.0000043c-137.8367462,0-250,112.1632538-250,250s112.1632538,250,250,250s250-112.163269,250-250
		S387.836731,0.0000043,250,0.0000043z M250,478.6001282C123.950264,478.6001282,21.3998604,376.0497437,21.3998604,250
		S123.950264,21.3998642,250,21.3998642S478.6001282,123.9502716,478.6001282,250S376.0497437,478.6001282,250,478.6001282z"/>
	<g>
		<path class="st0" d="M329.1151428,372.7515259c0,10.6668091,0,21.3336182,0,32.1445313c-10.6422424,0-21.1352539,0-31.8552856,0
			c0-10.71521,0-21.4316101,0-32.1480103l-0.06073,0.0567017c3.4120178,0,6.8240051,0,10.245575,0
			c0-14.3558044,0-28.4183655,0-42.7006226c-3.4493408,0-6.7792969,0-10.1878967,0c0-3.7189331,0-7.2184143,0-10.717926
			l-0.0576782,0.0576477c3.415802,0,6.831604,0,10.3989258,0c0-3.8059692,0-7.3092651,0-10.812561l-0.0566711,0.06073
			c7.0877991,0,14.1755676,0,21.5033569,0c0-10.7406921,0-21.3231201,0.000061-31.9057007
			c3.5466919-0.0000916,7.0933228-0.0000916,10.6514893-0.0000916c0-3.6876526,0-7.1472168,0-10.5813904
			c-3.5997009,0-7.059906,0-10.5929565,0c0,3.6468201,0,7.1435547,0,10.6403198c-7.0829773,0-14.1659851,0-21.4622192,0
			c0-10.6425781,0-21.1350555,0-31.8495331c-3.5378113,0-6.8694763,0-10.3044739,0c0-14.4337769,0-28.6438293,0-42.9556122
			c3.3688354,0,6.647583,0,10.1460266,0c0,7.0402069,0,14.0897675,0,21.4400482c3.7653503,0,7.3173218,0,10.8693237,0
			c0-0.0000153-0.0567017-0.0607147-0.0567017-0.0607147c0,3.5534515,0,7.1069183,0,10.812561c3.8056335,0,7.309082,0,10.812561,0
			l-0.0576477-0.057663c0,6.9949951,0,13.9899902,0,20.9730072c3.7571716,0,7.2230225,0,10.8348389,0
			c0-3.4307556,0-6.7115479,0-10.0716095c7.0597229,0,13.9684753,0,21.1004944,0c0,3.4442749,0,6.7768707,0,10.2524261
			c3.7242737,0,7.2262878,0,10.728302,0l-0.0576782-0.057663c0,7.1395111,0,14.2789764,0,21.3715973
			c-3.723938,0-7.193634,0-10.8120117,0c0-3.5875854,0-7.0089111,0-10.4405212c-3.4881287,0-6.8191833,0-10.1543884,0
			c0,7.1524353,0,14.1570129,0,21.3892517c7.0151978,0,13.9338074,0,20.8409424,0c0,3.6997375,0,7.1688538,0,10.7886353
			c-3.5743408,0-6.9960938,0-10.4660339,0c0,17.8258972,0,35.4961243,0,53.3292236c3.6386108,0,7.1438904,0,10.6491699,0
			l-0.06073-0.0566711c0,6.9492798,0,13.8985291,0,21.1558838c3.7069092,0,7.2607727,0,10.8146667,0l-0.0567017-0.06073
			c0,3.604187,0,7.208374,0,10.812561l0.0566711-0.0606995c-10.5253296,0-21.0506287,0-31.7984009,0
			c0-3.5274048,0-6.9968872,0-10.6888123c-7.3510742,0-14.4819946,0-21.6130371-0.0000916
			c-0.0000916-3.5466309-0.0000916-7.0932312-0.0000916-10.6513672c-3.6876526,0-7.1472778,0-10.5813599,0
			c0,3.5997314,0,7.0599365,0,10.592865C322.1216431,372.7515259,325.6183777,372.7515259,329.1151428,372.7515259z
			 M318.4685364,319.5088806c0,10.7918701,0,21.4246521,0,32.0081787c10.7781982,0,21.4112549,0,32.0124207,0
			c0-10.7470703,0-21.3311462,0-32.0081787C339.7896423,319.5088806,329.2056885,319.5088806,318.4685364,319.5088806z"/>
		<path class="st0" d="M179.7832031,180.8700104c0-14.1066132,0-28.2132263,0-42.542511c3.5158081,0,6.9856567,0,10.7590942,0
			c0-3.7683411,0-7.3194427,0-10.8705368l-0.0587006,0.0586014c3.3651123,0,6.7302246,0,10.320282,0
			c0,3.5621185,0,7.0342407,0,10.6525726c3.6413727,0,7.0612183,0,10.700943,0c0,10.6461792,0,21.1434326,0,31.885025
			c3.7680969,0,7.3215332,0,10.875061,0.0000458c0.0001373,3.5532837,0.0001373,7.1065063,0.0001373,10.6370087
			c7.294342,0,14.3421173,0,21.3170471,0c0-7.2010956,0-14.2490845,0-21.2387085c-3.5883331,0-7.0056,0-10.6437225,0
			c0,3.5840302,0,7.0543671,0,10.6602478c-3.7259674,0-7.229126,0-10.7322845,0c0-14.11763,0-28.2352753,0-42.491478
			c3.6269226,0,7.094635,0,10.7162781,0c0,6.9001083,0,13.7662888,0,20.7942886c3.6149902,0,7.0836487,0,10.7801361,0
			c0-6.8762817,0-13.7927856,0-20.8597412c3.5038452,0,6.786499,0,10.2934113,0c0-7.2017212,0-14.2561493,0-21.5514145
			c7.3603668,0,14.4977264,0,21.6350861,0l-0.0566711-0.0607376c0,3.5534668,0,7.1069336,0,10.8125534
			c3.8058777,0,7.3092346,0,10.8125916,0l-0.0576782-0.0576477c0,3.604187,0,7.208374,0,10.812561l0.0566406-0.0607452
			c-3.4968872,0-6.9938049,0-10.6941833,0c0,7.038887,0,13.9406967,0,21.0566788c-3.6600037,0-7.1246948,0-10.8796082,0
			c0,3.7580872,0,7.3044281,0,10.8507538l0.0586853-0.0585938c-3.5004272,0-7.0008545,0-10.7089386,0
			c0,10.7836151,0,21.4107056,0,32.2583466c-3.5318451,0-6.8626556,0-10.2988892,0c0,10.7097931,0,21.1973724,0,31.8344727
			c3.3613129,0,6.6413269,0,10.1412659,0c0,3.6074524,0,7.0767059,0,10.8481293c3.7672272,0,7.3178253,0,10.8684235,0
			l-0.0586243-0.0587006c0,3.5036621,0,7.0073242,0,10.6436768c-10.598526,0-21.0961761,0-31.746933,0
			c0-7.0481567,0-14.0522614,0-21.2155914c-3.615387,0-7.0839386,0-10.8566895,0c0,14.1386719,0,28.3060455,0.0000153,42.4734039
			c0,0.0000305,0.0607147-0.0566711,0.0607147-0.0566711c-7.1891479,0-14.3783112,0-21.5674744,0l0.057663,0.0576782
			c0-3.5472107,0-7.0943909,0-10.8531952c3.687912,0,7.1528931,0,10.5799408,0c0-7.1176605,0-14.0177612,0-20.9947968
			c-3.6424408,0-7.1394958,0-10.6365662,0c-0.0000153-3.5547943-0.0000153-7.1095886-0.0000153-10.7590027
			c-3.6123199,0-6.9788361,0-10.3453369,0c0-3.5544739,0-7.1089172,0-10.8835907c7.2246399,0,14.1411285,0,21.0151367,0
			c0-10.6753235,0-21.1244659,0-31.7996674c-3.579483,0-7.0521393,0-10.7394714,0c0-10.8629608,0-21.500412,0-32.1019897
			c-3.5066986,0-6.7877808,0-10.2911682,0c0,10.7483826,0,21.3858948,0,32.1226349c-3.7276154,0-7.2319794,0-10.7363434,0
			L179.7832031,180.8700104z"/>
		<path class="st0" d="M200.8793488,372.8037415c0-3.5022278,0-7.0044556,0-10.7254333c7.1395111,0,14.189743,0,21.4612579,0
			c0-3.5453491,0-6.877533,0-10.3538818c3.6388702,0,7.0579071,0,10.6943054,0c0-7.1956482,0-14.2459717,0-21.5176697
			c3.6815338,0,7.1516724,0,10.7241058,0c0-3.6393433,0-7.0563354,0-10.6985779c-3.4371643,0-6.9080048,0-10.6149597,0
			c0-3.7706909,0-7.3233032,0-10.8759155l-0.0607147,0.0567017c10.5753937,0,21.1507874,0,31.7399597,0
			c0-7.1861267,0-14.094574,0-21.1538391c-3.6405334,0-7.1421814,0-10.6437988,0l0.057663,0.0576477
			c0-3.604187,0-7.208374,0-10.812561l-0.0566406,0.0607605c7.0898895,0,14.1797943,0,21.403244,0
			c0-3.6333008,0-7.1017761,0-10.7267151c-3.47052,0-6.8922729,0-10.4663696,0c0-3.6197205,0-7.0888062,0-10.6875153
			c7.0470276,0,14.1001892,0,21.2547607,0c0,10.6630707,0,21.2525177,0,32.070694c-3.4709778,0-6.9443665,0-10.5332031,0
			c0,3.6453857,0,7.0655823,0,10.715332c3.4093018,0,6.8832092,0,10.6022034,0c0,3.6395264,0,7.0573425,0,10.4751892
			l0.06073-0.0566711c-3.5496216,0-7.0992432,0-10.7837524,0c0,1.0366821,0,1.782074,0,2.5274963
			c0,16.2336731-0.0015259,32.4673767,0.0048828,48.7010498c0.0003052,0.7527466,0.0718689,1.5054321,0.107666,2.2559814
			c-3.6317749-0.021637-7.2608948-0.0410767-10.8901672-0.0605774c-0.0001221-3.408905-0.0001221-6.817749-0.0001221-10.4268494
			c-3.7129517,0-7.2018127,0-10.6906433,0c-0.0221252-3.5801086-0.0442657-7.1602173-0.0663757-10.7403259
			c3.5440979,0,7.0881958,0,10.643158,0c0-3.6743774,0-7.1326599,0-10.5703125c-3.5973511,0-7.0561523,0-10.5845795,0
			c0,3.6410828,0,7.1350708-0.0000458,10.6291504c-3.4177856,0.0001526-6.8355408,0.0001526-10.21138,0.0001526
			c0,3.7245483,0,7.1934204,0,10.6177979c3.5339813,0,6.9042664,0,10.2723694,0.002594
			c-0.0021667,3.4605713-0.0021667,6.9185181-0.0021667,10.4292297c3.7173615,0,7.2079926,0,10.6985931,0
			c-0.0292053,3.5791931-0.0584412,7.1583862-0.087677,10.7375488c-7.0223999,0.0253296-14.0447693,0.0506592-21.0672913,0.0759277
			c-0.0001221-3.5467224-0.0001221-7.0933228-0.0001221-10.6514893c-3.6876373,0-7.1471863,0-10.5813599,0
			c0,3.5996704,0,7.0598755,0,10.592926c3.6467896,0,7.1435394,0,10.6402893,0c0,7.1288757,0,14.2577515,0,21.4028931
			c10.7035522,0,21.1892395,0,31.6643677,0c0-3.5973816,0-7.061676,0-10.7426758c-3.6154785,0-7.0830994,0-10.7194214,0
			c0-3.7249756,0-7.2289429,0.002594-10.7307129c3.5885925,0.0021667,7.1746216,0.0021667,10.9190063,0.0021667
			c0-3.6720276,0-7.1463013,0-10.620575c7.116333,0,14.2326355,0,21.4294128,0c0,3.7466431,0,7.2443237,0,10.7420654
			l0.06073-0.0567017c-3.505249,0-7.010498,0-10.7405396,0c0,10.7938843,0,21.4327698,0,32.1808472
			c-35.629837,0-71.0336456,0-106.6027985,0c0-7.0112,0-14.0641174,0-21.3661804c3.5071411,0,7.0623169,0,10.6174927,0
			l-0.0566406-0.06073c0,3.550293,0,7.1005859,0,10.6462402c10.7809448,0,21.2667694,0,31.7304993,0
			c0-7.182312,0-14.2261353,0-21.4011536c-7.2290192,0-14.3091278,0-21.3892517,0L200.8793488,372.8037415z"/>
		<path class="st0" d="M233.1440582,308.6322632c-3.5032654,0-7.0065308,0-10.7339935,0c0-3.4213562,0-6.7550964,0-10.197876
			c-3.6400757,0-7.0580902,0-10.6424255,0c0,6.8655701,0,13.7772217,0,20.9151306c3.4087677,0,6.8800812,0,10.4676514,0
			c0,3.6903381,0,7.1563721,0,10.775116c-3.4992065,0-6.9187775,0-10.5612488,0c0,3.6130371,0,7.0840759,0,10.7751465
			c-3.6880188,0-7.1586456,0-10.7751617,0c0,3.6400146,0,7.0595093,0,10.6285095c-3.4765472,0-6.8056488,0-10.3617554,0
			c0-3.4588623,0-6.9292297,0-10.5461426c-3.6399078,0-7.0592957,0-10.6951447,0c0-10.781189,0-21.4143982,0-32.3588562
			c-3.765152,0-7.3179016,0-10.8706512,0l0.0585785,0.0587158c0.0008698-3.4624634,0.0017242-6.9249878,0.002594-10.3874512
			l-0.0587006,0.0585938c10.5326996,0,21.0654144,0,31.7355957,0c0-3.6266174,0-7.0939331,0-10.7164001
			c-3.3168488,0-6.5992432,0-10.107132,0c0-3.6141052,0-7.0866699,0-10.7813416c-3.6892548,0-7.1616364,0-10.7793427,0
			c0-7.2269287,0-14.2303467,0-21.4573822c-7.1987915,0-14.2526093,0-21.5495453,0c0-3.6347351,0-7.0513153,0-10.4678802
			l-0.06073,0.0566711c10.7751465-0.0188904,21.5503082-0.0377655,32.3254547-0.0566406c0,6.9986725,0,13.997345,0,21.1528015
			c3.6060333,0,6.9721069,0,10.3381805,0l-0.057663-0.0576782c0,3.5540161,0,7.1080627,0,10.8829346
			c3.7731781,0,7.2456055,0,10.8590088,0c0,3.64505,0,7.0649414,0,10.5168762c3.621933,0,7.0891724,0,10.7084656,0
			c0-7.2253723,0-14.3125916,0-21.3998108c0,0-0.0607147,0.0567017-0.0607147,0.0566711
			c3.6048584,0.0013733,7.2097473,0.0027161,10.814621,0.0040588l-0.0566559-0.06073c0,3.5534668,0,7.1069641,0,10.8125916
			c3.8058624,0,7.3092194,0,10.812561,0l-0.057663-0.0576782c0,3.5534363,0,7.106842,0,10.812561
			c3.6676483,0,7.0332794,0,10.3989258,0l-0.057663-0.0576477c0,3.5498962,0,7.099823,0,10.8563843
			c-7.139679,0-14.0468597,0-21.0961609,0c0,3.5732727,0,6.9353638,0,10.2974548L233.1440582,308.6322632z M190.6510925,308.753479
			c0,7.2128296,0,14.258728,0,21.2503052c3.4755402,0,6.8039856,0,10.0879669,0c0-7.1638184,0-14.1609802,0-21.2503052
			C197.3534698,308.753479,194.0753326,308.753479,190.6510925,308.753479z"/>
		<path class="st0" d="M94.2724609,95.3081055c24.9318771,0,49.7177582,0,74.6136932,0c0,24.8770294,0,49.6629791,0,74.6141205
			c-24.7969971,0-49.6317978,0-74.6136932,0C94.2724609,145.1432343,94.2724609,120.3085785,94.2724609,95.3081055z
			 M105.0256348,106.0647507c0,17.8254471,0,35.4902115,0,53.1043167c17.8104248,0,35.4753571,0,53.1073456,0
			c0-17.7795563,0-35.3955994,0-53.1043167C140.4088135,106.0647507,122.7928543,106.0647507,105.0256348,106.0647507z"/>
		<path class="st0" d="M403.8033447,169.9953613c-24.9331055,0-49.7189636,0-74.614502,0c0-24.8774414,0-49.6633759,0-74.6141129
			c24.7982178,0,49.6330261,0,74.614502,0C403.8033447,120.1614532,403.8033447,144.9961243,403.8033447,169.9953613z
			 M393.0511169,159.2377777c0-17.8213959,0-35.4861526,0-53.1043091c-17.8090515,0-35.473938,0-53.1100464,0
			c0,17.7782059,0,35.3942261,0,53.1043091C357.6638794,159.2377777,375.2798462,159.2377777,393.0511169,159.2377777z"/>
		<path class="st0" d="M94.2150955,404.8917236c0-24.9255066,0-49.7113647,0-74.609436c24.8748932,0,49.6608353,0,74.6141129,0
			c0,24.7906189,0,49.6254272,0,74.609436C144.0566101,404.8917236,119.2219315,404.8917236,94.2150955,404.8917236z
			 M104.9700928,394.1369019c17.8367615,0,35.5015564,0,53.1043091,0c0-17.8141785,0-35.4791565,0-53.099823
			c-17.7833405,0-35.3993988,0-53.1043091,0C104.9700928,358.7650757,104.9700928,376.381012,104.9700928,394.1369019z"/>
		<path class="st0" d="M393.1629333,201.910553c0,7.0765686,0,14.1531372,0,21.4478607c3.5827637,0,7.0495911,0,10.6494446,0
			c0,3.6779785,0,7.1400757,0,10.8127747c-7.1486511,0-14.2745056,0-21.4002991,0l0.0566711,0.0607147
			c0-3.5479431,0-7.0959015,0-10.6384277c-3.7512512,0-7.2130432,0-10.8125916,0c0,3.6424103,0,7.1404266,0,10.6384277
			l0.0576782-0.057663c-3.5498352,0-7.0996704,0-10.8641357,0c0-3.697998,0-7.1660004,0-10.8436432
			c-3.5471191,0-6.8773193,0-10.3426208,0c0-3.6354218,0-7.0510864,0-10.5044403c-3.6115112,0-7.0745239,0-10.7471313,0
			c0,7.1750641,0,14.2197723,0,21.3480835c-3.7104797,0-7.2101135,0-10.7097473,0l0.0576477,0.057663
			c0-3.5534515,0-7.1069183,0-10.812561c-3.8056335,0-7.309082,0-10.812561,0c0,0,0.0567017,0.0606995,0.0567017,0.0607147
			c-0.0000305-10.5342865-0.0000305-21.068573-0.0000305-31.829422c3.5579834,0,7.030365,0,10.6508179,0
			c0-3.6430511,0-7.0632324,0-10.6454773c10.6494446,0,21.1471252,0,31.9616089,0c0,3.5066986,0,7.0606232-0.000061,10.6146698
			c-6.9896545,0.0001068-13.979248,0.0001068-20.9926758,0.0001068c0,3.5433655,0,6.8682251,0,10.1724396
			c7.0421753,0,13.9456482,0,20.9341431,0c0-3.5072021,0-6.869278,0-10.231369
			c3.602356,0.0226593,7.2047119,0.0453186,10.8070679,0.0679779l-0.0567017-0.0607147c0,3.4164886,0,6.832962,0,10.3989258
			c7.3925171,0,14.4799805,0,21.5675049,0L393.1629333,201.910553z"/>
		<path class="st0" d="M115.6633148,266.0222168c-3.5023651,0-7.0047302,0-10.7298279,0c0,3.6193237,0,7.0898438,0,10.6707153
			c-3.6383972,0-7.0558167,0-10.6410751,0c0-6.9986267,0-14.0469055,0-21.3205109c3.4000015,0,6.8703079,0,10.4619293,0
			c0-3.5506897,0-6.8783722,0-10.3582611c-3.48423,0-6.9029999,0-10.4743805,0c0-7.1965179,0-14.2444763,0-21.5340881
			c3.5232773,0,7.0758667,0,10.6284561,0l-0.0566483-0.06073c0,3.5479431,0,7.0959167,0,10.6384277
			c3.7511444,0,7.2129898,0,10.812561,0c0-3.6424255,0-7.1404266,0-10.6384277l-0.0576553,0.057663
			c3.604187,0,7.208374,0,10.812561,0l-0.0607452-0.0566406c0,7.0810089,0,14.1620178,0,21.4643707
			c3.5992126,0,7.0679779,0,10.7549133,0c0,7.2121277,0,14.2046814,0,21.1972351l0.06073-0.0566711
			c-3.604187,0-7.2083588,0-10.8125534,0l0.0576553,0.0576782c0-3.5479431,0-7.0959167,0-10.638443
			c-3.7511444,0-7.2129898,0-10.812561,0c0,3.6422577,0,7.1403656,0,10.638443L115.6633148,266.0222168z"/>
		<path class="st0" d="M264.927063,159.3568268c3.4929504,0,6.9859314,0,10.6877747,0c0,3.5159607,0,6.9760742,0,10.6890869
			c3.7370911,0,7.2720032,0,10.8093262,0.0022583c0.0024109,0.002243-0.0659485-0.0575714-0.0659485-0.0575714
			c0,10.5402985,0,21.0805664,0,31.7843628c-7.0124817,0-14.0658264,0-21.3722229,0c0-14.1347961,0-28.3057098-0.0000916-42.4766693
			C264.9857483,159.298233,264.927063,159.3568268,264.927063,159.3568268z"/>
		<path class="st0" d="M158.2733765,244.9301453c-3.5041046,0-7.0082092,0-10.7375793,0c0-3.5626068,0-7.0348206,0-10.6539764
			c-3.5040894,0-6.7863312,0-10.2935333,0c0-3.6143341,0-7.0858917,0-10.8558197c-3.7750702,0-7.329422,0-10.8837662,0
			c-0.0000076,0.0000153,0.0607376,0.0566559,0.0607376,0.0566559c0-3.6042023,0-7.2083893,0-10.8125763l-0.056633,0.0607452
			c6.9432297,0,13.886467,0,21.0512314,0c0,3.5359344,0,7.0046844,0,10.7548981c7.3495636,0,14.4799652,0,21.6103668,0
			l-0.0566406-0.06073c0,3.5480194,0,7.0960541,0,10.8566437c-3.6910248,0-7.1567841,0-10.7549133,0
			c0,3.7148132,0,7.2128296,0,10.7108307L158.2733765,244.9301453z"/>
		<path class="st0" d="M137.1134033,276.7812195c0,3.4969177,0,6.9938354,0,10.7067261c3.4602051,0,6.7875824,0,10.241806,0
			c0,7.1149597,0,14.0144348,0,21.1402893c-3.418869,0-6.8282776,0-10.2377167,0l0.0566406,0.06073
			c0-3.4158325,0-6.8316345,0-10.3989258c-3.8059235,0-7.3092346,0-10.8125534,0l0.06073,0.0566406
			c0-3.499939,0-6.9998779,0-10.7191467c-3.6096649,0-7.0775299,0-10.7589874,0c0-7.3472595,0-14.4762878-0.0000076-21.6053162
			c0,0-0.0566406,0.0607605-0.0566406,0.0607605c3.604187,0,7.208374,0,10.812561,0l-0.0576553-0.0576782
			c0,3.5534668,0,7.1069641,0,10.8125916c3.8056259,0,7.3090897,0,10.8125534,0L137.1134033,276.7812195z"/>
		<path class="st0" d="M382.4120789,234.1711884c0,3.504425,0,7.0088348,0,10.7371368c7.2051392,0,14.2590637,0,21.4235535,0
			c0,3.5036621,0,6.7845459,0,10.2934418c-3.4256592,0-6.8983765,0-10.672699,0c0,7.3607635,0,14.4979401,0,21.6350861
			l0.06073-0.0566406c-3.5500488,0-7.1000671,0-10.85672,0c0-7.2778931,0-14.3228149,0-21.5098114
			c-3.7110901,0-7.2109375,0-10.7107849,0l0.0576782,0.057663c0-7.0512695,0-14.1025391,0-21.1538239l-0.0576782,0.057663
			c3.6042175,0,7.2084045,0,10.8125916,0L382.4120789,234.1711884z"/>
		<path class="st0" d="M382.40802,308.6322937c0,3.50354,0,7.0070496,0,10.7330017c7.2096863,0,14.2625427,0,21.4268799,0
			c0,3.6391907,0,7.0577698,0,10.7035217c-3.4213562,0-6.8935852,0-10.676239,0c0,3.7735901,0,7.3270569,0,10.8804626
			l0.0587158-0.0585938c-3.6017456,0.0007629-7.2035522,0.0014954-10.8052979,0.0022583l0.0566711,0.06073
			c0-3.5472412,0-7.0944824,0-10.8536682c-3.7460022,0-7.2110901,0-10.6374512,0c0-7.2555847,0-14.293457,0-21.4110413
			c3.6428223,0,7.1401367,0,10.6374512,0L382.40802,308.6322937z"/>
		<path class="st0" d="M190.5422974,127.4569626c-3.505127,0-7.0102692,0-10.6526794,0c0-7.1529465,0-14.2045441,0-21.4097748
			c6.8997803,0,13.7661438,0,20.8586121,0c0-3.6134491,0-7.0864563,0-10.6928177c3.6925507,0,7.160202,0,10.7417755,0
			c0,7.0427628,0,14.0457535,0,21.2752075c-6.8786621,0-13.7952271,0-21.0066376,0c0,3.7754745,0,7.3306732,0.0001068,10.8859329
			C190.4835968,127.515564,190.5422974,127.4569626,190.5422974,127.4569626z"/>
		<path class="st0" d="M275.7459717,106.0034103c0-3.5046692,0-7.0093384,0-10.6498718c14.1829224,0,28.2647095,0,42.4625244,0
			c0,3.4515533,0,6.8708801,0,10.5171051c-6.8713379,0-13.7878418,0-21.0124207,0c0,3.7746811,0,7.3291321,0,10.8835831
			l0.06073-0.0566483c-3.6042175,0-7.2084045,0-10.8125916,0l0.0576782,0.0576477c0-3.5534592,0-7.106926,0-10.8125534
			c-3.8058777,0-7.3092346,0-10.8125916,0L275.7459717,106.0034103z"/>
		<path class="st0" d="M393.1629333,276.836853c3.5021667,0,7.0043335,0,10.6461792,0c0,10.5837097,0,21.0741882,0,31.7954102
			c-7.135376,0-14.2682495,0-21.4010925,0.0000305l0.06073,0.0566711c0-6.9906311,0-13.9812622,0-21.1900024
			c3.6819763,0,7.1496277,0,10.7549133,0c0-3.7191772,0-7.2189636,0-10.71875L393.1629333,276.836853z"/>
		<path class="st0" d="M297.1960754,116.7542267c3.364624,0,6.729248,0,10.3166809,0c0,3.5561142,0,7.0262756,0,10.6416473
			c3.6376648,0,7.0556946,0,10.6422729,0c0,3.6102448,0,7.077179,0,10.6932678c-10.4299927,0-20.9211731,0-31.6541443,0
			c0-3.5342865,0-7.0870056,0-10.6397476c-0.0000305,0-0.0566711,0.0607452-0.0566711,0.0607452
			c3.5534668,0,7.1069336,0,10.8125916,0c0-3.8058624,0-7.3092117,0-10.812561L297.1960754,116.7542267z"/>
		<path class="st0" d="M307.5413818,159.3642731c3.5017395,0,7.0034485,0,10.6434631,0c0,7.1382751,0,14.1849518,0,21.4560089
			c-3.4812012,0-6.9508057,0-10.5640869,0c0,3.6373444,0,7.0558929,0,10.6245117c-3.4737854,0-6.8019104,0-10.3609009,0
			c0-7.1203918,0-14.2528534,0-21.3853302l-0.06073,0.0566406c3.415802,0,6.831604,0,10.3989258,0
			c0-3.8056946,0-7.3091278,0-10.8125458L307.5413818,159.3642731z"/>
		<path class="st0" d="M169.0242004,223.480072c0-3.4984894,0-6.9969635,0-10.7125397c-3.5955353,0-7.0614624,0-10.750824,0
			c0-3.760849,0-7.3089294,0-10.8570099l-0.06073,0.0566711c7.1901855-0.0188904,14.3803711-0.037796,21.5705566-0.0566711
			c0,7.1884766,0,14.3769684,0,21.5654602c-3.6052246-0.0188751-7.210434-0.0377655-10.8156433-0.0566406L169.0242004,223.480072z"
			/>
		<path class="st0" d="M264.9876099,234.2391815c0-7.0848389,0-14.1696625,0-21.4000092c3.5496216,0,7.015625,0,10.707489,0
			c0,3.4731445,0,6.9426727,0,10.5575714c3.6384277,0,7.0571594,0,10.6260071,0c0,3.6126556,0,7.0788422,0,10.783493
			c-7.1240234,0-14.2579956,0-21.3920593,0.0001221C264.9289856,234.180481,264.9876099,234.2391815,264.9876099,234.2391815z"/>
		<path class="st0" d="M371.5899658,394.4289856c0,3.5655823,0,6.9825745,0,10.5048828c-10.5374451,0-20.980835,0-31.590271,0
			c0-3.4254761,0-6.8924866,0-10.5048828C350.4417419,394.4289856,360.9338379,394.4289856,371.5899658,394.4289856z"/>
		<path class="st0" d="M233.1399994,266.0860291c0-3.5014648,0-7.0029297,0-10.6451263c6.9982452,0,13.905899,0,21.0405121,0
			c0,7.1371002,0,14.2685699,0,21.4000702c0.0000153,0,0.0566559-0.0607605,0.0566559-0.0607605
			c-3.4663086,0-6.9326172,0-10.3989258,0l0.057663,0.0576782c0-3.5534668,0-7.1069336,0-10.8125916
			c-3.8058624,0-7.3092041,0-10.812561,0L233.1399994,266.0860291z"/>
		<path class="st0" d="M393.1629333,383.5029907c0,7.0813904,0,14.1627808,0,21.390686c-3.5386658,0-7.0034485,0-10.6951599,0
			c0-7.1324158,0-14.2635803-0.0000305-21.3947449l-0.0566711,0.0606995c3.604187,0,7.208374,0,10.8125916,0
			L393.1629333,383.5029907z"/>
		<path class="st0" d="M115.5438538,180.9888153c0,3.5571289,0,6.973053,0,10.4981842c-7.0876236,0-14.0848999,0-21.2504272,0
			c0-3.4169464,0-6.8832245,0-10.4981842C101.279953,180.9888153,108.3259964,180.9888153,115.5438538,180.9888153z"/>
		<path class="st0" d="M158.2733917,191.6249237c0-3.5040131,0-7.0080109,0-10.7548981
			c7.2348022,0,14.3722992,0,21.5098114-0.0000153c0,0-0.0607452-0.0566406-0.0607452-0.0566559
			c0.0202484,3.6038513,0.0404968,7.2077026,0.0607452,10.8115692c-7.1901855-0.0188904-14.3803711-0.0377655-21.5705566-0.0566559
			L158.2733917,191.6249237z"/>
		<path class="st0" d="M371.7128601,191.6289825c0-3.5002441,0-7.0004883,0-10.6433258c7.1297913,0,14.17276,0,21.4500732,0
			c0,3.5391998,0,7.0892334,0,10.6392517l0.06073-0.0566406c-7.1891785,0-14.3783264,0-21.5675049,0L371.7128601,191.6289825z"/>
		<path class="st0" d="M243.7518921,105.8748703c-3.5079803,0-6.9220581,0-10.4883881,0c0-3.4630508,0-6.9266357,0-10.5251846
			c3.4464264,0,6.9090729,0,10.4883881,0C243.7518921,98.8018112,243.7518921,102.2164993,243.7518921,105.8748703z"/>
		<path class="st0" d="M382.4677734,372.8078003c0-3.4984741,0-6.9969177,0-10.6406555c3.5413208,0,7.0032959,0,10.6951599,0
			c0,3.5404663,0,7.0885315,0,10.6365967l0.06073-0.0566711c-3.6042175,0-7.2084045,0-10.8125916,0L382.4677734,372.8078003z"/>
		<path class="st0" d="M297.2598572,170.0594635c-3.6321716-0.0215149-7.2643127-0.0430298-10.8990479-0.0666962
			c-0.002594-0.0021667,0.0657654,0.0576477,0.0633545,0.0554047c-0.0024109-3.4904633-0.0024109-6.9786682-0.0024109-10.6838989
			c3.7441711,0,7.289093,0,10.8340454,0l-0.0566711-0.0607147c0,3.6041718,0,7.208374,0,10.8125458
			C297.1991272,170.1161041,297.2598572,170.0594635,297.2598572,170.0594635z"/>
		<path class="st0" d="M126.4826202,191.4510651c0-3.5626526,0-6.9767151,0-10.4993286c3.5043793,0,6.9187317,0,10.4984283,0
			c0,3.4228058,0,6.8870392,0,10.4993286C133.5744934,191.4510651,130.1112061,191.4510651,126.4826202,191.4510651z"/>
		<path class="st0" d="M393.1629333,372.8037415c3.4987488,0,6.9975281,0,10.6411133,0c0,3.5426636,0,7.0049744,0,10.6992188
			c-3.5434875,0-7.0923157,0-10.6411133,0.0000305l0.06073,0.0566406c0-3.604187,0-7.208374,0-10.812561L393.1629333,372.8037415z"
			/>
		<path class="st0" d="M168.8373871,276.7297974c-3.5232544,0-6.9372101,0-10.4734039,0c0-3.5408936,0-7.00354,0-10.5713806
			c3.4849854,0,6.8991852,0,10.4734039,0C168.8373871,269.5974731,168.8373871,273.0612793,168.8373871,276.7297974z"/>
		<path class="st0" d="M94.1643677,298.1889343c0-3.561554,0-6.9269104,0-10.4586182c3.4892807,0,6.9536362,0,10.5681152,0
			c0,3.4000244,0,6.8633728,0,10.4586182C101.2759247,298.1889343,97.8130951,298.1889343,94.1643677,298.1889343z"/>
		<path class="st0" d="M169.0325012,298.2945557c-3.4967651,0-6.9935303,0-10.6403046,0c0-3.5329895,0-6.993103,0-10.592926
			c3.4341278,0,6.8937531,0,10.5813599,0c0,3.558136,0,7.1047668,0.0001221,10.6514587
			C168.9738007,298.3531494,169.0325012,298.2945557,169.0325012,298.2945557z"/>
		<path class="st0" d="M94.2408752,308.7567749c3.507988,0,6.9220657,0,10.4883804,0c0,3.4630127,0,6.9266052,0,10.5251465
			c-3.4464264,0-6.9090805,0-10.4883804,0C94.2408752,315.829834,94.2408752,312.4151306,94.2408752,308.7567749z"/>
		<path class="st0" d="M137.1174927,308.6282349c0,3.4984436,0,6.9969177,0,10.6406555c-3.5413666,0-7.0033417,0-10.6951828,0
			c0-3.5404663,0-7.0885315,0-10.6365967l-0.06073,0.0566711c3.6041946,0,7.2083664,0,10.8125534,0L137.1174927,308.6282349z"/>
		<path class="st0" d="M168.9713287,308.623291c0,3.4967957,0,6.9936523,0,10.6407471c-3.5317078,0-6.9919281,0-10.5919189,0
			c0-3.4333191,0-6.8929138,0-10.5817566c3.5572815,0,7.1038513,0,10.6504669-0.0001526
			C169.0299072,308.6820068,168.9713287,308.623291,168.9713287,308.623291z"/>
		<path class="st0" d="M286.4411621,308.6879578c3.6048889,0.0013428,7.2097473,0.0027161,10.8146362,0.0040588l-0.0566711-0.06073
			c0,3.604187,0,7.208374,0,10.812561l0.0576782-0.0576477c-3.553772,0-7.1075439,0-10.7549133,0
			c0-3.7482605,0-7.2515869,0-10.7549133L286.4411621,308.6879578z"/>
		<path class="st0" d="M104.9084167,223.480072c0-3.503891,0-7.0077667,0-10.7549133c3.64711,0,7.2010117,0,10.7549057,0
			l-0.0566483-0.06073c0,3.604187,0,7.208374,0,10.8125763l0.0576553-0.057663c-3.604187,0-7.208374,0-10.812561,0
			L104.9084167,223.480072z"/>
		<path class="st0" d="M115.6633224,212.7251587c0-3.4987488,0-6.9975128,0-10.6411285c3.5426712,0,7.004982,0,10.6992645,0
			c0,3.5435181,0,7.0923309,0.0000076,10.6411438c0.0000076,0,0.0566406-0.0607452,0.0566406-0.0607452
			c-3.604187,0-7.208374,0-10.812561,0L115.6633224,212.7251587z"/>
		<path class="st0" d="M382.4120789,340.8929443c0,3.5043335,0,7.008667,0,10.7589417c-3.649353,0-7.2041626,0-10.7589722,0.0000305
			l0.06073,0.0566711c0-3.553772,0-7.1075439,0-10.7549133c3.7482605,0,7.2515869,0,10.7549133,0L382.4120789,340.8929443z"/>
		<path class="st0" d="M393.1586609,340.9492798c3.4967651,0,6.9935303,0,10.6403503,0c0,3.5328369,0,6.993042,0,10.5927734
			c-3.434082,0-6.8936462,0-10.5813904,0c0-3.5580444,0-7.1046448-0.0001221-10.6513367
			C393.2173767,340.890686,393.1586609,340.9492798,393.1586609,340.9492798z"/>
		<path class="st0" d="M190.6029053,372.6610107c-3.5480804,0-7.0961761,0-10.7472229,0c0-3.4881592,0-6.8982849,0-10.4747314
			c3.4214325,0,6.8817291,0,10.691925,0c0,3.4624023,0,7.0003662-0.0022583,10.5407104
			C190.5430908,372.7293701,190.6029053,372.6610107,190.6029053,372.6610107z"/>
		<path class="st0" d="M297.2557983,159.3642731c0-3.4986572,0-6.9973145,0-10.6409912c3.4047241,0,6.729187,0,10.285553,0
			c0,3.5435791,0,7.0922852,0,10.6409912c0.0000305,0,0.0567017-0.0607147,0.0567017-0.0607147
			c-3.4663086,0-6.9326172,0-10.3989258,0L297.2557983,159.3642731z"/>
		<path class="st0" d="M393.1629333,191.6249084c3.4986572,0,6.9973145,0,10.6409912,0c0,3.4047546,0,6.7292175,0,10.2856293
			c-3.5435791,0-7.0922852,0-10.6409912,0.0000153l0.06073,0.0566406c0-3.4663086,0-6.9326172,0-10.3989258L393.1629333,191.6249084
			z"/>
		<path class="st0" d="M126.4223099,308.6322937c-3.4986572,0-6.9973221,0-10.6409988,0c0-3.4046936,0-6.7292786,0-10.2855835
			c3.5435867,0,7.0922852,0,10.6409988-0.0000305c0,0-0.06073-0.0566406-0.06073-0.0566406c0,3.4663086,0,6.9325867,0,10.3989258
			L126.4223099,308.6322937z"/>
		<path class="st0" d="M158.2733765,201.9105225c-3.4986725,0-6.997345,0-10.6410065,0c0-3.4046936,0-6.7292633,0-10.2855835
			c3.5435944,0,7.0923004,0,10.6410217-0.0000153c0,0-0.0607452-0.0566559-0.0607452-0.0566559
			c0,3.4663086,0,6.9326172,0,10.3989258L158.2733765,201.9105225z"/>
		<path class="st0" d="M137.1134033,266.0819702c3.3609772,0,6.7219543,0,10.2276306,0c0,3.5427551,0,7.0048828,0,10.6992493
			c-3.4053802,0-6.8164978,0-10.2276306,0c0,0,0.06073,0.0566711,0.06073,0.0566711c0-3.604187,0-7.2084045,0-10.8125916
			L137.1134033,266.0819702z"/>
		<path class="st0" d="M190.5340118,383.5627136c0.0215302-3.6321716,0.0430603-7.2643433,0.0667419-10.8991089
			c0.0021515-0.002594-0.057663,0.0657654-0.0554047,0.0633545c3.446167,0.0239868,6.8900757,0.0503845,10.3339844,0.0767822
			c0.0000153,0-0.0607147-0.0566711-0.0607147-0.0566711c0,3.5537109,0,7.1074829,0,10.7549133
			c-3.6102905,0-6.975769,0-10.3412476,0C190.4773712,383.5019836,190.5340118,383.5627136,190.5340118,383.5627136z"/>
		<path class="st0" d="M297.2557983,308.6920166c0-3.3609009,0-6.7217712,0-10.227478c3.4047852,0,6.729187,0,10.2855835,0
			c0,3.405426,0,6.8164368,0,10.227478l0.0566711-0.06073c-3.4663086,0-6.9326172,0-10.3989258,0L297.2557983,308.6920166z"/>
		<path class="st0" d="M297.1188049,351.5892639c-3.5265198,0-6.9405823,0-10.5005493,0c0-3.4821472,0-6.9454956,0-10.5374756
			c3.4653931,0,6.9279175,0,10.5005493,0C297.1188049,344.5232849,297.1188049,347.9375,297.1188049,351.5892639z"/>
		<path class="st0" d="M339.7471008,330.2750549c0,3.5384521,0,6.9522095,0,10.5081482c-3.4932556,0-6.9564819,0-10.5446777,0
			c0-3.4766541,0-6.9394226,0-10.5081482C332.6842651,330.2750549,336.0979919,330.2750549,339.7471008,330.2750549z"/>
		<path class="st0" d="M179.7224579,201.9671936c0-3.4663086,0-6.9326172,0-10.3989258c6.9434662,0,13.8869171,0,20.9774323,0
			c0,3.4600372,0,6.786972,0,10.3989258C193.7081909,201.9671936,186.7153168,201.9671936,179.7224579,201.9671936z"/>
		<path class="st0" d="M190.5350342,234.2319031c-3.503479,0-7.0069427,0-10.8125763,0c0-3.7056427,0-7.2590942,0-10.812561
			c3.6042023,0,7.208374,0,10.8125763,0C190.5350342,227.0235291,190.5350342,230.6277161,190.5350342,234.2319031z"/>
		<path class="st0" d="M190.4773712,244.9868164c0-3.604187,0-7.2083893,0-10.8125763c3.4662933,0,6.9326172,0,10.3989105,0
			c0,3.5033112,0,7.0066223,0,10.8125763C197.3089752,244.9868164,193.8931732,244.9868164,190.4773712,244.9868164z"/>
		<path class="st0" d="M115.7812653,116.818924c10.595192,0,21.0412445,0,31.5960693,0c0,10.537735,0,20.9839478,0,31.5945129
			c-10.4591522,0-20.9543381,0-31.5960693,0C115.7812653,137.9718933,115.7812653,127.4769897,115.7812653,116.818924z"/>
		<path class="st0" d="M350.6983032,116.8171692c10.558197,0,21.0042114,0,31.5960693,0c0,10.5152588,0,21.0101776,0,31.6330261
			c-10.4973145,0-20.9917603,0-31.5960693,0C350.6983032,137.9467773,350.6983032,127.5006027,350.6983032,116.8171692z"/>
		<path class="st0" d="M147.3387299,383.4403687c-10.588913,0-21.0349503,0-31.5919113,0c0-10.535614,0-20.981842,0-31.5944824
			c10.4528275,0,20.9480667,0,31.5919113,0C147.3387299,362.2810974,147.3387299,372.7760315,147.3387299,383.4403687z"/>
	</g>
</g>
</svg>
