<?xml version="1.0" encoding="utf-8"?>
<!-- Generator: Adobe Illustrator 19.0.0, SVG Export Plug-In . SVG Version: 6.00 Build 0)  -->
<svg version="1.1" id="圖層_1" xmlns="http://www.w3.org/2000/svg" xmlns:xlink="http://www.w3.org/1999/xlink" x="0px" y="0px"
	 viewBox="0 0 100 100" style="enable-background:new 0 0 100 100;" xml:space="preserve">
<style type="text/css">
	.st0{fill:#FAAF3B;}
</style>
<g id="XMLID_169_" transform="translate(0,-952.36218)">
	<path id="XMLID_170_" class="st0" d="M50,952.4c-27.6,0-50,22.4-50,50c0,27.6,22.4,50,50,50c27.6,0,50-22.4,50-50
		C100,974.8,77.6,952.4,50,952.4z M50,956.7c25.2,0,45.7,20.4,45.7,45.7c0,25.2-20.4,45.7-45.7,45.7c-25.2,0-45.7-20.4-45.7-45.7
		C4.3,977.1,24.8,956.7,50,956.7z M19.6,979.5c-2.4,0-4.3,2-4.3,4.3v37c0,2.4,2,4.3,4.3,4.3h60.9c2.4,0,4.3-2,4.3-4.3v-37
		c0-2.4-2-4.3-4.3-4.3C80.4,979.5,19.6,979.5,19.6,979.5z M23.3,983.9h53.5L50,1007.1C50,1007.1,23.3,983.9,23.3,983.9z M19.6,986.4
		l17.8,15.5l-17.8,16.2C19.6,1018.1,19.6,986.4,19.6,986.4z M80.4,986.4v31.7l-17.8-16.2L80.4,986.4z M40.7,1004.7l7.9,6.9
		c0.8,0.7,2,0.7,2.9,0l7.9-6.9l17.7,16.1H23C23,1020.8,40.7,1004.7,40.7,1004.7z"/>
</g>
</svg>
