<?xml version="1.0" encoding="utf-8"?>
<!-- Generator: Adobe Illustrator 19.0.0, SVG Export Plug-In . SVG Version: 6.00 Build 0)  -->
<svg version="1.1" id="圖層_1" xmlns="http://www.w3.org/2000/svg" xmlns:xlink="http://www.w3.org/1999/xlink" x="0px" y="0px"
	 viewBox="0 0 100 100" style="enable-background:new 0 0 100 100;" xml:space="preserve">
<style type="text/css">
	.st0{fill:#FAAF3B;}
</style>
<g id="XMLID_232_">
	<path id="XMLID_311_" class="st0" d="M50,0C22.4,0,0,22.4,0,50c0,27.6,22.4,50,50,50c27.6,0,50-22.4,50-50C100,22.4,77.6,0,50,0z
		 M50,95.7C24.8,95.7,4.3,75.2,4.3,50C4.3,24.8,24.8,4.3,50,4.3c25.2,0,45.7,20.4,45.7,45.7C95.7,75.2,75.2,95.7,50,95.7z"/>
	<g id="XMLID_878_" transform="translate(0,-952.36218)">
		<path id="XMLID_879_" class="st0" d="M34.5,976.5c-1.7,0-3.1,0.9-4,1.9l-4.5,5.2c-1.4,1.7-1.8,3.8-1.8,5.8
			c0,6.8,4.7,16.5,13.5,25.2c8.8,8.8,18.4,13.5,25.3,13.5c2,0,4.1-0.3,5.8-1.8l5.2-4.5c1-0.9,1.9-2.3,2-4c0-1.7-0.9-3-1.9-4
			l-7.1-7.1c-0.9-0.9-2.3-1.9-4-1.9c-1.8,0-3.2,1.1-4,1.9l-2.6,2.5c-0.4,0.4-0.6,0.5-0.8,0.4l-13-13c-0.2-0.3,0.1-0.5,0.2-0.7
			c0,0,2.7-2.7,2.7-2.7c0.8-0.8,1.9-2.1,1.9-3.9c0-1.7-1-3-1.9-4l-7.1-7.1C37.5,977.4,36.2,976.5,34.5,976.5z M35.7,981.1l7.1,7.1
			c0.5,0.5,0.8,0.9,0.8,1.3c0,0.4-0.4,0.8-0.8,1.2c0,0-2.7,2.7-2.7,2.7c-1.6,1.6-1.9,4-0.5,5.8l13.6,13.6c1.8,1.4,4.2,1,5.7-0.4
			c0.1-0.1,2.9-2.9,2.9-2.9c0.4-0.5,0.8-0.7,1.2-0.7c0.5,0,0.9,0.4,1.2,0.7l7.1,7.1c1.1,1.1,0.9,1.9,0.1,2.3l-5.2,4.5
			c-0.5,0.4-1.7,0.8-3.2,0.8c-4.9,0-14.3-4.1-22.5-12.4c-8.2-8.2-12.4-17.6-12.4-22.5c0-1.5,0.4-2.7,0.8-3.2l4.5-5.2
			C34.2,980.1,34.9,980.3,35.7,981.1z"/>
	</g>
</g>
</svg>
